<svg width="66" height="60" viewBox="0 0 66 60" fill="none" xmlns="http://www.w3.org/2000/svg">
<g style="mix-blend-mode:soft-light" opacity="0.4">
<path fill-rule="evenodd" clip-rule="evenodd" d="M82.7252 27.9016H61.2602C59.6432 37.4287 51.3501 44.6831 41.3626 44.6831C31.3751 44.6831 23.082 37.4287 21.465 27.9016H0C1.73034 49.2303 19.5881 66 41.3626 66C63.1371 66 80.9949 49.2303 82.7252 27.9016ZM82.6859 20.6448H61.1779C59.3786 11.3421 51.191 4.31694 41.3626 4.31694C31.5342 4.31694 23.3466 11.3421 21.5473 20.6448H0.0392849C1.98408 -0.467588 19.7427 -17 41.3626 -17C62.9825 -17 80.7411 -0.467588 82.6859 20.6448ZM28.5457 24.5C28.5457 17.4214 34.284 11.6831 41.3626 11.6831C48.4412 11.6831 54.1795 17.4214 54.1795 24.5C54.1795 31.5786 48.4412 37.3169 41.3626 37.3169C34.284 37.3169 28.5457 31.5786 28.5457 24.5Z" fill="white"/>
</g>
</svg>
